<svg width="90" height="90" viewBox="0 0 90 90" fill="none" xmlns="http://www.w3.org/2000/svg">
<g clip-path="url(#clip0)">
<path d="M76.3914 19.3649C76.0363 18.9735 75.5323 18.7502 75.0039 18.7499H15.0038C13.9683 18.7453 13.1251 19.581 13.1205 20.6165C13.1202 20.6782 13.123 20.7397 13.1288 20.8011L18.7538 80.801C18.8264 81.5708 19.3639 82.2169 20.1075 82.4286L46.3574 89.9286C46.5269 89.9768 46.7025 90.0007 46.8786 89.9998C47.0797 89.9997 47.2797 89.968 47.4712 89.9061L69.9712 82.4061C70.6769 82.1712 71.177 81.5416 71.2461 80.801L76.8711 20.8011C76.9205 20.2764 76.7461 19.755 76.3914 19.3649Z" fill="#2196F3"/>
<path d="M46.8789 75.0001C46.705 74.999 46.5321 74.9737 46.3651 74.925L33.24 71.1751C32.5958 70.9917 32.0983 70.4784 31.935 69.8288L30.06 62.3287C29.7861 61.3301 30.3737 60.2984 31.3723 60.0245C32.371 59.7507 33.4026 60.3383 33.6765 61.3369C33.6842 61.3649 33.6911 61.3928 33.6974 61.4211L35.3098 67.8711L46.8785 71.1786L58.2785 67.9198L61.6535 37.5035H28.1285C27.093 37.5035 26.2534 36.6639 26.2534 35.6284C26.2534 34.5929 27.093 33.7533 28.1285 33.7533H63.7535C64.7891 33.747 65.6335 34.5814 65.6399 35.617C65.6402 35.6897 65.6365 35.7623 65.6284 35.8346L61.8785 69.5846C61.7934 70.3405 61.2601 70.9701 60.5285 71.1784L47.4034 74.9283C47.2331 74.9772 47.0563 75.0013 46.8789 75.0001Z" fill="#FAFAFA"/>
<path d="M61.8789 52.5001H30.004C28.9684 52.5001 28.1289 51.6605 28.1289 50.625C28.1289 49.5895 28.9684 48.7499 30.004 48.7499H61.8789C62.9144 48.7499 63.754 49.5895 63.754 50.625C63.754 51.6605 62.9144 52.5001 61.8789 52.5001Z" fill="#FAFAFA"/>
<path d="M33.7539 11.2508H26.2538C25.2183 11.2508 24.3788 10.4113 24.3788 9.37578V1.8759C24.379 0.84037 25.2183 0.000839233 26.2538 0.000839233H33.7539C34.7894 0.000839233 35.629 0.84037 35.629 1.8759C35.629 2.91143 34.7894 3.75096 33.7539 3.75096H28.1289V7.5009H33.7539C34.7894 7.5009 35.629 8.34043 35.629 9.37596C35.629 10.4115 34.7894 11.2508 33.7539 11.2508Z" fill="white"/>
<path d="M48.7538 11.25H41.2537C40.2182 11.25 39.3786 10.4105 39.3786 9.37494C39.3786 8.33941 40.2182 7.49988 41.2537 7.49988H44.2274L39.9262 3.20238C39.193 2.47113 39.1916 1.2839 39.9229 0.550718C40.2755 0.197222 40.7545 -0.0010591 41.2537 -0.000180196H48.7538C49.7893 -0.000180196 50.6288 0.839351 50.6288 1.87488C50.6288 2.91041 49.7893 3.74994 48.7538 3.74994H45.7801L50.0776 8.04743C50.8108 8.77868 50.8122 9.96591 50.0809 10.6991C49.7292 11.0517 49.2518 11.2498 48.7538 11.25Z" fill="white"/>
<path d="M63.7539 11.25H56.2538C55.2183 11.25 54.3788 10.4105 54.3788 9.37494C54.3788 8.33942 55.2183 7.49988 56.2538 7.49988H59.2275L54.9263 3.20256C54.1931 2.47131 54.1917 1.28408 54.923 0.550901C55.2756 0.197405 55.7546 -0.000875997 56.2538 2.90947e-06H63.7539C64.7894 2.90947e-06 65.6289 0.839534 65.6289 1.87506C65.6289 2.91059 64.7894 3.75012 63.7539 3.75012H60.7802L65.0777 8.04762C65.8109 8.77887 65.8123 9.9661 65.081 10.6993C64.7293 11.0517 64.2517 11.2498 63.7539 11.25Z" fill="white"/>
</g>
<defs>
<clipPath id="clip0">
<rect width="90" height="90" fill="white"/>
</clipPath>
</defs>
</svg>
