<svg width="90" height="90" viewBox="0 0 90 90" fill="none" xmlns="http://www.w3.org/2000/svg">
<path d="M73.125 90H16.875C7.55438 90 0 82.4456 0 73.125V16.875C0 7.55438 7.55438 0 16.875 0H73.125C82.4456 0 90 7.55438 90 16.875V73.125C90 82.4456 82.4456 90 73.125 90Z" fill="black"/>
<path d="M42.6291 33.4181C40.9247 34.1016 39.091 34.6022 37.2235 34.6022C31.8882 31.4888 24.6488 34.7316 24.6488 41.5547H24.6516C24.6516 44.0972 26.2575 47.5819 28.7663 48.4369V48.5381C26.9016 49.3706 26.3869 53.6203 28.8647 55.1475V55.2488C26.1563 56.1544 24.3732 57.8897 24.3732 60.8934C24.3732 66.0656 29.2107 67.5028 33.4463 67.5028C38.6044 67.5028 42.4407 65.6241 42.4407 59.8669C42.4407 52.785 32.4254 55.3978 32.4254 51.5503C32.4254 50.1947 33.1397 49.6716 34.3772 49.4128C38.4919 48.6394 41.071 45.3938 41.071 41.1553C41.071 40.4213 40.9219 39.7294 40.6744 39.0459C41.3382 38.8969 41.985 38.7141 42.6263 38.4919V33.4181H42.6291ZM33.3479 58.0106C35.0325 58.0078 37.4316 58.3116 37.4316 60.5194C37.4316 62.7103 35.4994 63.1603 33.6938 63.1603C31.9782 63.1603 29.3991 62.8875 29.3991 60.6291C29.4104 58.3931 31.5929 58.0106 33.3479 58.0106ZM33.03 45.0028C30.8504 45 29.9279 43.695 29.9279 41.6053C29.9279 36.6525 35.9747 36.7031 35.9747 41.5547C35.9747 43.5966 35.1816 45.0028 33.03 45.0028Z" fill="#FC573B"/>
<path d="M65.6241 54.8944V49.9725C64.831 50.5266 63.6919 50.805 62.7188 50.805C60.885 50.805 60.556 48.9966 60.556 47.5087V38.3597C63.7003 38.3597 65.6129 38.4609 65.6129 38.4609V33.6881H60.556C60.556 32.3128 60.5053 30.9375 60.705 29.5509H55.0828C55.26 30.5747 55.2319 31.4494 55.2319 33.6881H52.8525V38.4609C54.5091 38.1994 54.5372 38.3597 55.2319 38.3597V38.4609H55.1841V47.2697C55.1841 51.6403 55.8085 55.8787 61.1129 55.8787C62.6007 55.8787 64.3078 55.6284 65.6241 54.8944V54.8944Z" fill="#FC573B"/>
<path d="M47.7956 22.5C45.8128 22.5 44.3756 24.2466 44.3756 26.1872C44.3756 28.0969 45.8325 29.8237 47.7956 29.8237C49.7081 29.8237 51.1453 28.0659 51.1453 26.1872C51.1481 24.3084 49.7587 22.5 47.7956 22.5Z" fill="#FC573B"/>
<path d="M45.0309 33.6684C45.2081 35.1534 45.1884 53.73 45.0309 55.5469H50.535C50.3775 53.7413 50.3578 35.1338 50.535 33.6684H45.0309Z" fill="#FC573B"/>
</svg>
