<svg width="30" height="36" viewBox="0 0 30 36" fill="none" xmlns="http://www.w3.org/2000/svg">
<g clip-path="url(#clip0)">
<path d="M15 9.47472L4.30069 19.805C4.30069 19.8196 4.29756 19.841 4.29131 19.8703C4.28518 19.8993 4.28192 19.9203 4.28192 19.9353V30.3958C4.28192 30.7735 4.39982 31.1008 4.63556 31.3764C4.87124 31.6522 5.15032 31.791 5.47287 31.791H12.618V23.4223H17.3821V31.7913H24.5272C24.8497 31.7913 25.1292 31.6528 25.3645 31.3764C25.6003 31.1011 25.7185 30.7736 25.7185 30.3958V19.9353C25.7185 19.8773 25.7118 19.8335 25.6998 19.805L15 9.47472Z" fill="white"/>
<path d="M29.793 17.4513L25.7182 13.4849V4.59332C25.7182 4.39005 25.6624 4.22289 25.5504 4.09205C25.4393 3.96138 25.2966 3.89604 25.1227 3.89604H21.55C21.3763 3.89604 21.2336 3.96138 21.1218 4.09205C21.0103 4.22289 20.9546 4.39013 20.9546 4.59332V8.84292L16.4143 4.397C16.0178 4.01923 15.5463 3.83039 15.0004 3.83039C14.4546 3.83039 13.9832 4.01923 13.5863 4.397L0.206772 17.4513C0.0827436 17.5673 0.0147659 17.7235 0.00212194 17.9196C-0.0104569 18.1156 0.0328846 18.2869 0.132277 18.432L1.28594 20.0448C1.38533 20.1754 1.51542 20.2554 1.67673 20.2846C1.82566 20.2993 1.97458 20.2483 2.12351 20.1321L15 7.55711L27.8767 20.132C27.9762 20.2334 28.1062 20.284 28.2675 20.284H28.3234C28.4845 20.2553 28.6143 20.1748 28.7142 20.0445L29.868 18.432C29.9672 18.2865 30.0107 18.1156 29.9978 17.9193C29.985 17.7237 29.9168 17.5675 29.793 17.4513Z" fill="white"/>
</g>
<defs>
<clipPath id="clip0">
<rect width="30" height="35.1351" fill="white" transform="translate(0 0.24324)"/>
</clipPath>
</defs>
</svg>
