<svg width="90" height="92" viewBox="0 0 90 92" fill="none" xmlns="http://www.w3.org/2000/svg">
<g clip-path="url(#clip0)">
<path d="M90 45.6C90 60.2627 83.1691 73.3098 72.5565 81.652C64.9433 87.6377 55.383 91.2 45 91.2C34.7106 91.2 25.2294 87.7009 17.6491 81.8119C6.91893 73.4792 0 60.3577 0 45.6C0 20.4158 20.1472 0 45 0C69.8528 0 90 20.4158 90 45.6Z" fill="black"/>
<path d="M77.694 21.2813L72.5566 81.6519C64.9434 87.6377 55.3831 91.2 45.0001 91.2C34.7107 91.2 25.2295 87.7009 17.6492 81.8119L12.499 21.2813H77.694Z" fill="#E64C18"/>
<path d="M45.0962 26.9412V89.8047L66.5264 83.6742L71.3068 26.9412H45.0962Z" fill="#F36518"/>
<path d="M24.7681 34.8284L26.8695 60.0443H54.8017L53.8878 70.4605L45.0964 72.8731L35.9402 70.2739L35.7103 63.7796H27.1812L28.2489 76.5832L45.0964 81.4081L61.9438 76.5832L64.0318 51.5307H34.6162L33.8862 43.3656L33.886 43.3652L64.7272 43.2015L65.4247 34.8284H24.7681Z" fill="white"/>
<path d="M26.5709 2.99178V7.32395H22.4861V2.99178H18.686V15.4101H22.4861V11.367H26.5709V15.4101H30.3709V2.99178H26.5709Z" fill="white"/>
<path d="M43.8611 2.99178H32.1759V7.32395H35.9759V15.5067H40.0611V7.32395H43.8611V2.99178Z" fill="white"/>
<path d="M65.6164 11.5594V3.08817H61.5312V11.5594V15.5067H65.6164H71.5061V11.5594H65.6164Z" fill="white"/>
<path d="M55.356 3.08817L52.5063 7.51635L49.6562 3.08817H45.5712V15.5067H49.6562V9.34534L52.5063 13.7739L55.356 9.34534V15.5067H59.4412V3.08817H55.356Z" fill="white"/>
</g>
<defs>
<clipPath id="clip0">
<rect width="90" height="91.2" fill="white"/>
</clipPath>
</defs>
</svg>
