<svg width="90" height="90" viewBox="0 0 90 90" fill="none" xmlns="http://www.w3.org/2000/svg">
<path d="M90 45C90 50.8628 88.8796 56.463 86.8389 61.6004C85.7479 64.3482 84.3942 66.9637 82.8072 69.4139C80.8309 72.4702 78.4927 75.2713 75.8552 77.7546C74.3105 79.2111 72.6648 80.5574 70.9272 81.7843C63.5987 86.9602 54.6557 90 45 90C35.3443 90 26.4013 86.9602 19.0726 81.7843C16.8979 80.2489 14.8665 78.5278 13.0022 76.6396C4.96283 68.512 0 57.3337 0 45C0 32.6663 4.96283 21.488 13.0022 13.3604C14.9767 11.3621 17.1385 9.54914 19.4583 7.9476C26.7135 2.93502 35.5133 0 45 0C54.4867 0 63.2865 2.93502 70.5417 7.9476C72.3141 9.1691 73.993 10.5172 75.567 11.9774C78.3239 14.5267 80.7594 17.4196 82.8074 20.5861C84.3943 23.0363 85.748 25.6518 86.8391 28.3996C88.8796 33.537 90 39.1372 90 45Z" fill="#E4BA42"/>
<path d="M68.7394 40.9518C67.4869 37.3194 62.3513 37.3194 61.3495 40.3255C60.3476 43.3315 63.7294 45.0849 68.99 46.8387C74.2506 48.5923 77.5073 53.2267 76.881 57.3599C76.2547 61.493 74.5011 66.8791 64.1052 66.8791C57.6078 66.8791 53.9969 62.8181 52.2024 59.7725L58.093 56.2326C58.093 56.2326 60.0971 60.4913 63.8546 60.4913C67.6123 60.4913 69.1152 59.2388 69.1152 56.3579C69.1152 52.8509 56.9655 51.5985 55.0868 45.5862C53.208 39.574 55.7131 31.0569 64.4807 31.683C69.9607 32.0745 73.043 34.7653 74.5843 36.7285L68.7394 40.9518Z" fill="#F2F2F2"/>
<path d="M41.4341 32.3095C41.4341 32.3095 41.4341 53.4772 41.4341 56.3581C41.4341 59.2388 38.929 60.7421 36.424 60.2409C33.9189 59.74 32.7916 56.7339 32.7916 56.7339L27.03 60.6168C27.03 60.6168 28.2825 66.3783 36.1735 66.8795C44.0645 67.3805 48.5734 62.6208 48.5734 58.6127C48.5734 54.6045 48.5734 32.3095 48.5734 32.3095H41.4341Z" fill="#F2F2F2"/>
<path d="M13.0022 7.9476V76.6396C14.8665 78.5278 16.8979 80.2487 19.0726 81.7843H70.9274C72.665 80.5574 74.3107 79.2111 75.8554 77.7545H17.032V11.9774H82.8072V69.4139C84.3942 66.9637 85.7479 64.3482 86.8389 61.6004V7.9476H13.0022Z" fill="#F2F2F2"/>
</svg>
