<svg width="80" height="80" viewBox="0 0 80 80" fill="none" xmlns="http://www.w3.org/2000/svg">
<path d="M80 40C80 53.1787 73.6261 64.8686 63.7942 72.1567C59.6783 75.2066 54.9567 77.4856 49.8431 78.7787C46.6939 79.5772 43.3975 80 40 80C36.6025 80 33.3045 79.5772 30.1552 78.7787C25.0417 77.4856 20.32 75.2066 16.2041 72.155C6.37219 64.8669 0 53.1772 0 40C0 17.9086 17.9086 0 40 0C62.0914 0 80 17.9086 80 40Z" fill="#5ADAFD"/>
<path d="M63.8352 62.5225C63.6474 61.2638 63.3992 59.9674 63.0924 58.6417C62.8213 57.4777 62.5063 56.2906 62.1488 55.0858C61.2083 51.9217 59.9692 48.6336 58.4672 45.3095C57.8092 43.8564 57.1006 42.3969 56.3447 40.9389C55.6786 39.6541 54.9766 38.3675 54.2369 37.0891C53.4989 35.8091 52.7381 34.5585 51.9561 33.3389C51.0728 31.9561 50.1634 30.6141 49.2328 29.3177C47.107 26.3544 44.8786 23.6361 42.6075 21.2392C41.7439 20.3266 40.8736 19.4613 40.0002 18.6466C39.0059 17.7159 38.0067 16.8524 37.0091 16.0605C30.4964 10.8899 24.6663 9.3372 20.5895 11.6899C16.5128 14.0441 14.9422 19.8694 16.1635 28.0964C16.3495 29.3552 16.5994 30.6516 16.908 31.9772C17.1758 33.1413 17.4908 34.3283 17.85 35.5331C18.7905 38.6972 20.0295 41.987 21.5333 45.3094C22.1897 46.7625 22.8981 48.2203 23.6541 49.6783C24.3202 50.9649 25.0239 52.2497 25.7619 53.5297C26.4999 54.8097 27.2606 56.0603 28.0427 57.2799C28.9275 58.6644 29.8369 60.0064 30.7659 61.3027C32.8917 64.266 35.1202 66.9827 37.3913 69.3794C38.255 70.292 39.1267 71.1589 40.0002 71.9736C40.9944 72.9042 41.9936 73.7663 42.9895 74.5581C45.3847 76.4602 47.6867 77.8724 49.8434 78.7786C54.9569 77.4855 59.6786 75.2064 63.7944 72.1566C64.3689 69.5086 64.3902 66.2645 63.8352 62.5225ZM60.1681 71.5625C59.693 73.6164 58.8195 75.0238 57.5706 75.7438C56.3233 76.4653 54.6678 76.5177 52.6514 75.9038C50.4669 75.236 47.9167 73.7764 45.2752 71.6785C44.387 70.9731 43.4972 70.2058 42.6074 69.3813C41.7355 68.5714 40.8636 67.7061 39.9984 66.7902C38.5127 65.218 37.0433 63.497 35.6099 61.6506C34.6531 60.418 33.7111 59.1299 32.7919 57.7927C31.458 55.8547 30.1699 53.8139 28.9453 51.6914C27.7192 49.5689 26.596 47.4335 25.5853 45.3094C24.8866 43.8449 24.2416 42.3853 23.6539 40.9405C22.7706 38.7756 22.0147 36.6417 21.396 34.5699C21.0367 33.3617 20.7217 32.1764 20.4588 31.0156C20.1877 29.8336 19.9674 28.6777 19.8008 27.5561C19.3045 24.2206 19.316 21.2819 19.8302 19.0566C20.3053 17.0027 21.1803 15.5953 22.4277 14.8753C23.1019 14.4867 23.8938 14.2908 24.7966 14.2908C25.5672 14.2908 26.4194 14.4328 27.3467 14.7169C29.5313 15.383 32.0814 16.8442 34.723 18.9406C35.6111 19.6459 36.5025 20.4133 37.3908 21.2411C38.2642 22.0492 39.1345 22.9145 39.9981 23.8289C41.4855 25.4011 42.9549 27.122 44.39 28.9702C45.3467 30.2028 46.2888 31.4909 47.208 32.8281C48.5402 34.7661 49.8284 36.8069 51.0528 38.9277C52.2789 41.0502 53.4022 43.1856 54.4128 45.3097C55.1116 46.7758 55.7566 48.2355 56.3442 49.6803C57.2275 51.8452 57.9834 53.9775 58.6022 56.0492C58.9614 57.2574 59.2764 58.4427 59.541 59.6035C59.8103 60.7855 60.0308 61.9414 60.1974 63.063C60.6939 66.3985 60.6825 69.3372 60.1681 71.5625Z" fill="#F2F2F2"/>
<path d="M66.8245 33.2752C65.6408 32.8083 64.3934 32.3757 63.0906 31.9772C61.9478 31.6294 60.7625 31.3079 59.5395 31.0157C56.3297 30.2483 52.862 29.6769 49.2326 29.3177C47.6473 29.1593 46.0294 29.0435 44.3901 28.9699C42.9436 28.903 41.4775 28.8687 40 28.8687C38.5225 28.8687 37.0562 28.9029 35.6081 28.9699C33.9673 29.0433 32.3494 29.161 30.7641 29.3177C27.1347 29.6769 23.6686 30.2483 20.4587 31.0157C19.2359 31.3079 18.0506 31.6296 16.9076 31.9772C15.6048 32.374 14.3575 32.8083 13.1737 33.2752C5.43999 36.3282 1.17874 40.6026 1.17874 45.3094C1.17874 50.0163 5.43999 54.2907 13.1739 57.3454C14.3576 57.8122 15.6033 58.2449 16.9061 58.6433C18.0489 58.9911 19.2342 59.3127 20.4572 59.6033C23.667 60.3722 27.1347 60.9421 30.7658 61.3029C32.3511 61.4596 33.9691 61.5755 35.6098 61.6507C37.0564 61.7176 38.5225 61.7502 40 61.7502C41.4775 61.7502 42.942 61.7176 44.3886 61.6507C46.0294 61.5755 47.6458 61.4596 49.2326 61.3029C52.862 60.9436 56.3314 60.3722 59.5412 59.6033C60.7641 59.3111 61.9494 58.9911 63.0923 58.6418C64.3936 58.2451 65.6409 57.8124 66.8245 57.3454C74.56 54.2907 78.8197 50.0165 78.8197 45.3094C78.8195 40.6026 74.56 36.3282 66.8245 33.2752ZM72.8195 49.649C71.1509 51.2082 68.6106 52.6857 65.4742 53.9249C64.418 54.3411 63.3076 54.7297 62.1484 55.0857C61.0105 55.4368 59.8269 55.7583 58.6023 56.049C56.4978 56.5502 54.2725 56.9616 51.9558 57.2801C50.4112 57.494 48.8259 57.6654 47.208 57.7912C44.8619 57.979 42.4505 58.0736 39.9998 58.0736C37.5492 58.0736 35.1378 57.979 32.7917 57.7929C31.1737 57.6655 29.5869 57.4941 28.0423 57.2802C25.7256 56.9618 23.5003 56.5504 21.3958 56.0491C20.1712 55.7585 18.9876 55.4369 17.8497 55.0858C16.6905 54.7299 15.5803 54.3413 14.5239 53.9251C11.3876 52.6858 8.84718 51.2083 7.17859 49.6491C5.63734 48.2107 4.8553 46.7511 4.8553 45.3096C4.8553 43.868 5.63734 42.4083 7.17859 40.9701C8.84718 39.4108 11.3875 37.9333 14.5239 36.6941C15.5801 36.2779 16.6905 35.8893 17.8497 35.5333C18.9876 35.1822 20.1712 34.8607 21.3958 34.5701C23.5003 34.0688 25.7256 33.6574 28.0423 33.339C29.5869 33.1251 31.1737 32.9537 32.7917 32.8263C35.1378 32.6402 37.5492 32.5455 39.9998 32.5455C42.4505 32.5455 44.8619 32.6402 47.208 32.828C48.8259 32.9538 50.4112 33.1252 51.9558 33.3391C54.2725 33.6576 56.4978 34.069 58.6023 34.5702C59.8269 34.8608 61.0105 35.1824 62.1484 35.5335C63.3076 35.8894 64.4178 36.278 65.4742 36.6943C68.6105 37.9335 71.1509 39.411 72.8195 40.9702C74.3608 42.4087 75.1428 43.8682 75.1428 45.3097C75.1428 46.7512 74.3608 48.2107 72.8195 49.649Z" fill="#F2F2F2"/>
<path d="M59.4089 11.6899C55.3321 9.3372 49.502 10.8899 42.9893 16.0605C41.9934 16.8524 40.9942 17.7159 40 18.6466C39.1265 19.4613 38.2546 20.3281 37.3911 21.2408C35.12 23.6375 32.8915 26.3542 30.7642 29.3175C29.8353 30.6138 28.9257 31.9559 28.0426 33.3388C27.2606 34.5583 26.4998 35.8089 25.7618 37.0889C25.0239 38.3689 24.3203 39.6538 23.654 40.9403C22.8981 42.3983 22.1895 43.8578 21.5332 45.3092C20.0295 48.6333 18.7904 51.9214 17.85 55.0855C17.4907 56.292 17.1757 57.4789 16.9062 58.643C16.5993 59.9688 16.3495 61.2635 16.1634 62.5222C15.6082 66.2627 15.6295 69.5067 16.2042 72.1549C20.3201 75.2063 25.0417 77.4855 30.1553 78.7786C32.312 77.8725 34.614 76.4602 37.0092 74.5581C38.0067 73.7663 39.0059 72.9027 40.0003 71.9736C40.8737 71.1589 41.744 70.2936 42.6076 69.381C44.877 66.9842 47.1071 64.2658 49.2329 61.3025C50.1618 60.0061 51.0714 58.6641 51.9562 57.2797C52.7382 56.0602 53.499 54.8095 54.237 53.5295C54.9765 52.2511 55.6786 50.9663 56.3448 49.6797C57.1007 48.2217 57.8093 46.7622 58.4673 45.3091C59.9693 41.9866 61.2086 38.6969 62.1489 35.5328C62.5064 34.328 62.8215 33.1409 63.0909 31.9769C63.3995 30.6511 63.6476 29.3549 63.8354 28.0961C65.0562 19.8694 63.4857 14.0441 59.4089 11.6899ZM58.6025 34.5699C57.9837 36.6417 57.2278 38.7739 56.3445 40.9388C55.7567 42.3836 55.1118 43.8433 54.4131 45.3094C53.4025 47.4335 52.2792 49.5689 51.0531 51.6914C49.8286 53.8122 48.5404 55.853 47.2082 57.791C46.2875 59.1297 45.3454 60.4178 44.3887 61.6505C42.9553 63.497 41.4859 65.2178 39.9986 66.79C39.135 67.7042 38.2646 68.5695 37.3912 69.3794C36.5031 70.2055 35.6117 70.9728 34.7234 71.6781C32.0818 73.7761 29.5315 75.2356 27.3472 75.9035C25.3309 76.5174 23.6753 76.465 22.4279 75.7435C21.1806 75.0235 20.3054 73.6161 19.8304 71.5622C19.3162 69.3369 19.3047 66.3981 19.8011 63.0627C19.9676 61.9411 20.1879 60.7852 20.4573 59.6031C20.7218 58.4424 21.0368 57.257 21.3961 56.0489C22.0148 53.977 22.7707 51.8431 23.654 49.6783C24.2418 48.2335 24.8867 46.7738 25.5854 45.3094C26.5961 43.1853 27.7193 41.0499 28.9454 38.9274C30.17 36.8049 31.4581 34.7641 32.792 32.8261C33.7112 31.4889 34.6515 30.2008 35.6082 28.9699C37.0434 27.1217 38.5128 25.401 39.9984 23.8286C40.8637 22.9127 41.7356 22.0474 42.6073 21.2392C43.4971 20.4131 44.3868 19.6458 45.2751 18.9405C47.9167 16.8442 50.467 15.383 52.6514 14.7167C53.5787 14.4327 54.4309 14.2906 55.2015 14.2906C56.1043 14.2906 56.8978 14.4866 57.5704 14.8752C58.8193 15.5952 59.6929 17.0025 60.1679 19.0564C60.6821 21.2817 60.6937 24.2205 60.1973 27.556C60.0307 28.6775 59.8104 29.8334 59.5393 31.0155C59.2767 32.1763 58.9615 33.3616 58.6025 34.5699Z" fill="#F2F2F2"/>
<path d="M40 52.6057C44.0296 52.6057 47.2962 49.339 47.2962 45.3094C47.2962 41.2798 44.0296 38.0132 40 38.0132C35.9704 38.0132 32.7037 41.2798 32.7037 45.3094C32.7037 49.339 35.9704 52.6057 40 52.6057Z" fill="#F2F2F2"/>
</svg>
