<svg width="512" height="248" viewBox="0 0 512 248" fill="none" xmlns="http://www.w3.org/2000/svg">
<path fill-rule="evenodd" clip-rule="evenodd" d="M255.999 152.145C317.578 152.145 367.497 138.425 367.497 121.5C367.497 117.411 367.277 113.373 366.848 109.398C360.817 53.5105 313.488 9.99988 255.999 9.99988C198.509 9.99988 151.181 53.5105 145.149 109.397C144.72 113.372 144.5 117.41 144.5 121.499C144.499 138.425 194.419 152.145 255.999 152.145Z" fill="#1272F2"/>
<path fill-rule="evenodd" clip-rule="evenodd" d="M367.497 121.5C367.497 138.425 317.578 152.146 255.998 152.146C194.419 152.146 144.5 138.425 144.5 121.5C144.5 117.411 144.72 113.373 145.149 109.398C62.2694 120.897 10.0009 144.241 10.0009 169.757C10.0009 207.099 120.138 237.371 255.998 237.371C391.859 237.371 501.996 207.099 501.996 169.757C501.996 144.24 449.728 120.896 366.848 109.398C367.277 113.373 367.497 117.411 367.497 121.5V121.5Z" fill="#A2AAB0"/>
<path d="M375.687 100.575C365.741 43.5166 315.858 0 255.997 0C240.474 0 225.342 2.89497 211.022 8.60392C186.5 18.3802 152.5 45.0002 178 32.5C203.5 19.9998 203.5 32.4569 218.43 27.1817C230.562 22.8951 243.022 19.9998 255.997 19.9998C311.89 19.9998 357.374 65.4114 357.496 121.275C356.648 123.138 349.849 129.146 328.646 134.457C308.85 139.415 283.049 142.145 255.997 142.145C228.946 142.145 203.144 139.415 183.349 134.457C162.147 129.146 155.346 123.139 154.498 121.276C154.526 108.378 158.064 90.0775 163.5 78.5C190.5 21 274.5 15.092 190 25C177.427 26.4742 165 32.5 147 68C143.205 75.4854 137.725 92.3641 136.299 100.575C92.5031 107.201 0 126.351 0 169.756C0 193.065 27.4557 212.932 79.4002 227.209C102.746 233.626 129.853 238.617 159.319 242.029L184.5 244.083C184.5 244.083 52.2013 206.451 72.5 214.5C92.7987 222.549 69 219 184.5 244.083C184.5 244.083 285 241.455 219.5 233.5L184.5 244.083C208.927 246.245 229.645 247.371 255.997 247.371C282.351 247.371 308.093 246.245 332.52 244.083L357.496 241.455C353.081 241.455 358.693 245.923 357.496 241.455L352.675 242.03C382.142 238.618 409.248 233.627 432.594 227.21C484.538 212.933 511.994 193.065 511.994 169.757C511.995 126.345 419.468 107.197 375.687 100.575ZM427.294 207.925C381.67 220.465 320.836 227.371 255.997 227.371C191.159 227.371 130.325 220.465 84.7012 207.925C36.9446 194.799 19.9998 179.16 19.9998 169.757C19.9998 157.238 50.6875 134.363 134.504 121.087C134.504 121.225 134.499 121.363 134.499 121.501C134.499 153.585 210.871 162.146 255.997 162.146C301.124 162.146 377.496 153.585 377.496 121.501C377.496 121.363 377.491 121.226 377.491 121.088C461.308 134.364 491.995 157.239 491.995 169.758C491.995 179.16 475.05 194.799 427.294 207.925Z" fill="black"/>
<path d="M183.674 179.804H183.667C178.145 179.804 173.67 184.282 173.67 189.804C173.67 195.326 178.151 199.804 183.674 199.804C189.197 199.804 193.674 195.326 193.674 189.804C193.674 184.282 189.197 179.804 183.674 179.804V179.804Z" fill="black"/>
<path d="M113.432 161.303H113.425C107.903 161.303 103.428 165.781 103.428 171.303C103.428 176.825 107.909 181.303 113.432 181.303C118.955 181.303 123.432 176.825 123.432 171.303C123.432 165.781 118.955 161.303 113.432 161.303Z" fill="black"/>
<path d="M328.322 179.804C322.8 179.804 318.322 184.282 318.322 189.804C318.322 195.326 322.8 199.804 328.322 199.804H328.33C333.852 199.804 338.326 195.326 338.326 189.804C338.326 184.282 333.844 179.804 328.322 179.804V179.804Z" fill="black"/>
<path d="M398.564 161.303C393.042 161.303 388.564 165.781 388.564 171.303C388.564 176.825 393.042 181.303 398.564 181.303H398.572C404.094 181.303 408.568 176.825 408.568 171.303C408.568 165.781 404.086 161.303 398.564 161.303V161.303Z" fill="black"/>
<path d="M296 114.251C296 144.675 275.839 179.175 255.298 179.175C234.757 179.175 216 144.675 216 114.251C216 83.8265 234.757 69 255.298 69C275.839 69 296 83.8265 296 114.251Z" fill="black"/>
<path d="M249.515 123.34C247.365 126.106 239.48 125.19 233.375 121.045C227.27 116.9 223.505 112.006 225.655 109.24C227.806 106.474 236.744 107.39 242.849 111.535C248.953 115.681 251.665 120.574 249.515 123.34Z" fill="white"/>
<path d="M286.606 109.899C288.21 112.972 283.642 119.048 276.86 122.14C270.078 125.231 263.687 126.04 262.083 122.967C260.479 119.894 265.541 112.95 272.323 109.858C279.106 106.767 285.002 106.826 286.606 109.899Z" fill="white"/>
<path d="M208.5 159.5L225.5 161L236 162H247H262H276L288 161L302.5 159.5L304.5 200H208.5V159.5Z" fill="#A2AAB0"/>
<path d="M256.004 186H255.996C250.474 186 246 190.478 246 196C246 201.522 250.481 206 256.004 206C261.527 206 266.004 201.522 266.004 196C266.004 190.478 261.527 186 256.004 186Z" fill="black"/>
</svg>
