<svg width="29" height="32" viewBox="0 0 29 32" fill="none" xmlns="http://www.w3.org/2000/svg">
<g clip-path="url(#clip0)">
<path d="M18.125 8.65316C17.458 8.65316 16.9167 8.06793 16.9167 7.34685V5.38739H12.0833V7.34685C12.0833 8.06793 11.542 8.65316 10.875 8.65316C10.208 8.65316 9.66666 8.06793 9.66666 7.34685V5.38739C9.66666 3.94654 10.7505 2.77478 12.0833 2.77478H16.9167C18.2495 2.77478 19.3333 3.94654 19.3333 5.38739V7.34685C19.3333 8.06793 18.792 8.65316 18.125 8.65316Z" fill="white"/>
<path d="M15.3579 20.2531C15.1404 20.3446 14.8263 20.4099 14.5 20.4099C14.1738 20.4099 13.8596 20.3446 13.5696 20.227L0 15.3414V25.3086C0 27.2941 1.48625 28.9009 3.32292 28.9009H25.6771C27.5138 28.9009 29 27.2941 29 25.3086V15.3414L15.3579 20.2531Z" fill="white"/>
<path d="M29 10.286V13.2775L14.79 18.3982C14.6933 18.4374 14.5967 18.4505 14.5 18.4505C14.4033 18.4505 14.3067 18.4374 14.21 18.3982L0 13.2775V10.286C0 8.30045 1.48625 6.6937 3.32292 6.6937H25.6771C27.5138 6.6937 29 8.30045 29 10.286Z" fill="white"/>
</g>
<defs>
<clipPath id="clip0">
<rect width="29" height="31.3514" fill="white" transform="translate(0 0.16217)"/>
</clipPath>
</defs>
</svg>
