<svg width="90" height="90" viewBox="0 0 90 90" fill="none" xmlns="http://www.w3.org/2000/svg">
<path d="M90 45C90 46.3904 89.9376 47.7643 89.8126 49.1217C89.7172 50.1963 89.5811 51.2578 89.4085 52.3067C85.9187 73.6843 67.3641 90 45 90C33.6085 90 23.2072 85.7682 15.2798 78.7885C12.3502 76.2115 9.7585 73.2581 7.58022 70.0035C2.79176 62.853 0 54.2517 0 45C0 20.1472 20.1472 0 45 0C69.8528 0 90 20.1472 90 45Z" fill="black"/>
<path d="M78.5333 50.0933C77.1685 50.6094 77.2237 50.6185 76.5018 49.3035C75.5798 47.6285 75.0894 45.867 75.047 43.9513C75.012 42.3074 75.462 40.7793 76.0279 39.2804C76.4796 38.0885 75.892 37.6678 74.8596 37.5594C74.1083 37.4822 73.3333 37.4896 72.5803 37.5667C70.6222 37.767 70.4294 37.9359 69.9096 39.837C69.6011 40.9648 69.3548 42.1017 68.8424 43.1724C67.5788 45.8081 66.1424 48.3465 64.6694 50.8665C64.4048 51.3202 64.1864 51.8087 63.8135 52.1963C62.7464 50.5983 62.3442 48.8333 62.2542 46.9818C62.1642 45.1542 62.7244 43.4552 63.3396 41.7746C63.5472 41.2089 63.3746 40.8581 62.8859 40.6137C62.6692 40.5055 62.4268 40.4044 62.1898 40.3859C60.9335 40.2868 59.6809 40.3014 58.4557 40.6448C57.9046 40.7972 57.5446 41.1059 57.4216 41.7248C57.1829 42.9353 56.81 44.1107 56.3066 45.2422C54.9107 48.3757 53.524 51.5146 52.1299 54.65C50.9177 57.3739 49.7238 60.1051 48.2875 62.7207C48.1864 62.9061 48.102 63.2276 47.8485 63.1633C47.5914 63.099 47.6814 62.7831 47.6703 62.5663C47.5877 61.0235 48.0083 59.5522 48.3664 58.0792C48.934 55.7483 49.5547 53.4285 50.1572 51.1051C50.3299 50.4383 50.0397 49.9901 49.4868 49.6705C48.6916 49.2131 47.8999 49.1912 47.0385 49.8321C47.1561 48.8842 47.2075 48.0523 47.167 47.2203C47.0753 45.3653 46.2155 44.1585 44.7187 43.8792C43.6259 43.6753 42.5918 43.9931 41.6146 44.456C39.337 45.5342 37.5059 47.1597 35.9666 49.1323C35.7866 49.3618 35.6048 49.5731 35.344 49.7145C32.4548 51.2886 29.5675 52.8627 26.6857 54.4514C26.3698 54.6277 26.1659 54.5781 25.9381 54.3338C24.487 52.7781 22.8029 51.4942 21.1351 50.1921C18.8042 48.3701 16.3927 46.6436 14.3814 44.4468C13.2059 43.1612 12.2251 41.7523 11.7346 40.0516C10.9338 37.2707 11.5327 34.6809 12.8661 32.2198C14.4439 29.3085 16.7839 27.0605 19.3644 25.0583C23.4622 21.8807 27.9566 19.357 32.6936 17.2798C37.9981 14.9564 43.5009 13.4594 49.3618 13.6853C51.6836 13.7753 53.9371 14.1775 56.0053 15.3144C57.4692 16.119 58.439 17.2816 58.7127 18.9879C59.0342 20.9862 58.5547 22.8322 57.6677 24.5827C55.6859 28.4931 52.5359 31.2629 48.8127 33.432C45.7123 35.2375 42.3677 36.3837 38.8281 36.9842C36.8721 37.3166 34.9086 37.5168 32.9414 37.2175C30.684 36.874 28.5975 36.1192 27.0529 34.3007C26.8747 34.0914 26.6488 33.9462 26.3457 34.0931C26.0353 34.2438 26.0592 34.5192 26.0886 34.7838C26.1105 34.9655 26.1603 35.1492 26.2245 35.322C26.6377 36.437 27.411 37.2781 28.3164 38.0129C30.6712 39.9285 33.4612 40.4907 36.3908 40.5476C39.2579 40.6046 42.081 40.2409 44.8747 39.5724C51.1764 38.0663 56.4553 34.975 60.3088 29.6779C62.6121 26.5113 64.0705 23.0215 63.9418 19.0285C63.8592 16.4957 63.0069 14.2585 61.161 12.4402C58.966 10.282 56.2423 9.19653 53.3199 8.54456C50.0651 7.82087 46.7775 7.71803 43.4566 8.11477C40.5675 8.46001 37.7445 9.05151 34.9966 9.99739C30.7923 11.4465 26.7314 13.2263 22.8449 15.39C18.8629 17.605 15.1103 20.1417 11.819 23.3191C8.90596 26.1311 6.40248 29.2335 4.99183 33.085C4.38943 34.7344 3.95595 36.4298 4.36008 38.2133C4.8781 40.5091 6.00943 42.4965 7.49724 44.2891C9.74724 47.0039 12.5079 49.1418 15.3548 51.1842C17.6416 52.8261 20.0348 54.3213 22.2316 56.0863C22.8542 56.5859 22.8505 56.5859 22.1177 56.9698C21.2618 57.4161 20.3966 57.8459 19.5555 58.3216C16.1633 60.2394 12.8848 62.3185 10.2085 65.2078C8.89154 66.6313 7.99699 68.2293 7.58021 70.0035C9.75849 73.2582 12.3502 76.2117 15.2798 78.7885C20.2776 78.3991 24.1035 75.7983 26.9302 71.4967C28.295 69.4194 28.9341 67.0685 29.1748 64.5887C29.3861 62.403 29.1637 60.287 28.5209 58.2005C28.4089 57.8331 27.9919 57.4676 28.1554 57.1444C28.3078 56.8468 28.7671 56.6961 29.105 56.5015C30.4678 55.7098 31.8343 54.9294 33.2376 54.123C33.2982 54.4243 33.1806 54.6006 33.1293 54.7915C32.3248 57.7433 31.7646 60.7187 32.3763 63.7861C32.7565 65.6963 33.3902 67.4944 34.595 69.0759C35.8348 70.7033 38.6028 70.5176 39.7267 69.0318C40.7939 67.6211 41.5011 66.0305 42.2376 64.4472C42.6417 63.5803 43.0126 62.6987 43.3985 61.8224C43.3267 62.8768 43.3304 63.9053 43.3691 64.9303C43.4076 65.9405 43.5693 66.9379 44.0946 67.8305C44.7263 68.9031 45.9148 69.2154 47.0187 68.6422C48.1832 68.0379 48.9767 67.0424 49.5937 65.9624C52.2404 61.3174 54.6961 56.5731 56.7294 51.6194C57.1628 50.567 57.6074 49.5163 58.0978 48.3463C58.1731 48.7303 58.2228 48.9653 58.2687 49.2005C58.7204 51.5607 59.525 53.7942 60.6895 55.8935C60.9393 56.3435 60.9117 56.6539 60.5958 57.0855C59.5232 58.5457 58.3476 59.9196 57.1887 61.3081C56.2152 62.4763 55.1737 63.5931 54.3509 64.8788C53.6126 66.0359 54.0367 67.2205 55.2656 67.4833C55.6439 67.5642 56.0426 67.5881 56.4302 67.5824C58.5773 67.5568 60.5591 66.9157 62.4052 65.8651C64.8902 64.449 66.3634 62.3733 66.2954 59.4181C66.2641 58.0736 65.9004 56.7824 65.3586 55.5499C65.2393 55.2762 65.2337 55.0779 65.4119 54.8207C67.133 52.3557 68.6537 49.7716 70.0515 47.112C70.2995 46.6437 70.4739 46.1238 70.8743 45.6666C70.9276 45.852 70.9698 45.9679 70.9937 46.0872C71.4382 48.2913 72.0369 50.4457 73.161 52.4129C73.4695 52.9511 73.3154 53.2246 72.8893 53.5846C71.4217 54.8318 70.1838 56.2864 69.2121 57.9524C68.4554 59.2492 67.9373 60.634 67.943 62.1531C67.9484 63.8429 69.2415 64.8383 70.8891 64.4416C72.6065 64.0301 74.1989 63.3303 75.6278 62.2853C78.741 60.0059 79.6539 57.6016 78.6786 54.2459C78.2967 52.9253 78.3039 52.9474 79.6282 52.547C82.5247 51.6727 85.4634 51.6359 88.4169 52.1172C88.7513 52.1722 89.0819 52.2348 89.4087 52.3064C89.5813 51.2576 89.7172 50.1959 89.8128 49.1214C86.0346 48.1978 82.2618 48.6772 78.5333 50.0933ZM17.3296 73.7228C16.4902 74.0204 15.6178 74.1472 14.725 74.0774C13.6137 73.9891 12.9085 73.205 12.8368 72.0257C12.7559 70.6665 13.1583 69.4396 13.7533 68.2457C14.8351 66.0783 16.6516 64.6072 18.505 63.1635C20.3068 61.7585 22.2428 60.5589 24.2007 59.3926C24.7939 59.04 24.8031 59.0437 24.939 59.7509C25.1153 60.6582 25.2733 61.5674 25.2144 62.3921C25.3689 67.3383 21.7763 72.1487 17.3296 73.7228ZM44.2891 48.7818C43.977 50.8665 43.2954 52.852 42.57 54.8135C41.5818 57.4915 40.6194 60.1822 39.3759 62.7574C39.0911 63.3507 38.7918 63.9403 38.3309 64.4233C37.8956 64.8807 37.5098 64.8274 37.2087 64.269C36.6209 63.1779 36.6943 61.9639 36.5989 61.0822C36.6265 56.6594 38.1106 53.0446 40.5552 49.7955C41.2385 48.89 42.1109 48.1535 43.2663 47.8577C44.0504 47.6578 44.4122 47.9737 44.2891 48.7818ZM61.4076 61.8759C60.57 63.3233 59.3633 64.3757 57.8828 65.125C57.7248 65.2039 57.5211 65.3435 57.3778 65.1581C57.2419 64.9835 57.4604 64.8678 57.5596 64.7576C59.0309 63.1505 60.4837 61.5305 61.7933 59.7874C61.8135 59.7598 61.8631 59.7561 61.975 59.7085C61.9622 60.515 61.7859 61.2239 61.4076 61.8759ZM71.5665 61.8135C71.348 61.9163 71.0946 62.1091 70.8815 61.9439C70.6465 61.7621 70.74 61.4406 70.8117 61.1945C71.1461 60.0724 71.5961 58.9978 72.2167 57.9967C72.7383 57.1537 73.385 56.4172 74.0957 55.7302C74.3822 55.4548 74.5107 55.4878 74.6081 55.8845C74.7091 56.2904 74.7183 56.6963 74.7257 57.1096C74.7074 59.3706 73.5594 60.875 71.5665 61.8135Z" fill="#CD6699"/>
</svg>
