<svg width="30" height="30" viewBox="0 0 30 30" fill="none" xmlns="http://www.w3.org/2000/svg">
<path d="M15.0021 0C10.7163 0 7.21295 3.50338 7.21295 7.78912C7.21295 12.0749 10.7163 15.5782 15.0021 15.5782C19.2878 15.5782 22.7912 12.0749 22.7912 7.78912C22.7912 3.50338 19.2878 0 15.0021 0Z" fill="white"/>
<path d="M28.3694 21.8027C28.1653 21.2925 27.8933 20.8163 27.5871 20.3741C26.0225 18.0612 23.6076 16.5306 20.8865 16.1564C20.5464 16.1224 20.1722 16.1904 19.9001 16.3945C18.4715 17.4489 16.7709 17.9932 15.0021 17.9932C13.2334 17.9932 11.5327 17.4489 10.1042 16.3945C9.83201 16.1904 9.45786 16.0884 9.11776 16.1564C6.39666 16.5306 3.94771 18.0612 2.41711 20.3741C2.11099 20.8163 1.83885 21.3266 1.63482 21.8027C1.5328 22.0068 1.56678 22.2449 1.6688 22.449C1.94094 22.9252 2.28104 23.4014 2.58716 23.8096C3.06333 24.4559 3.57355 25.034 4.15181 25.5783C4.62798 26.0544 5.17219 26.4966 5.71646 26.9388C8.4035 28.9456 11.6348 30 14.9681 30C18.3015 30 21.5328 28.9456 24.2198 26.9388C24.764 26.5307 25.3082 26.0544 25.7845 25.5783C26.3287 25.034 26.8729 24.4558 27.3491 23.8096C27.6892 23.3674 27.9954 22.9252 28.2675 22.449C28.4375 22.2449 28.4715 22.0068 28.3694 21.8027Z" fill="white"/>
</svg>
